# xmcd CD database file generated by OrangeCD 6.4
#
# Track frame offsets:
#	150
#	22962
#	42591
#	60696
#	96372
#	114814
#	130892
#	146535
#	164704
#	190844
#	213647
#	233785
#
# Disc length: 3572 seconds
#
# Revision: 0
# Processed by: cddbd v1.5.2PL0 Copyright (c) Steve Scherf et al.
# Submitted via: OrangeCD 6.4
#
DISCID=ac0df20c
DTITLE=Amleto Barboni - Amleto Barboni's Thing
DYEAR=2011
DGENRE=
TTITLE0=Steel Cutting Deep
TTITLE1=Peach Tree Blues
TTITLE2=What's On Your Mind
TTITLE3=She Brings Me Donw In Pain
TTITLE4=Big Town Playboy
TTITLE5=Over Yonder
TTITLE6=Prision Bound Blues
TTITLE7=I'm A Hustler
TTITLE8=Fas As You Can Be
TTITLE9=Strange Feeling
TTITLE10=Long Day's Journey Into Night
TTITLE11=Mud Story
EXTD=
EXTT0=
EXTT1=
EXTT2=
EXTT3=
EXTT4=
EXTT5=
EXTT6=
EXTT7=
EXTT8=
EXTT9=
EXTT10=
EXTT11=
PLAYORDER=
